<svg width="25" height="25" viewBox="0 0 25 25" fill="none" xmlns="http://www.w3.org/2000/svg">
<path fill-rule="evenodd" clip-rule="evenodd" d="M4.78571 15.9286C5.12671 15.9286 5.45373 16.064 5.69485 16.3052C5.93597 16.5463 6.07143 16.8733 6.07143 17.2143C6.07143 17.5553 5.93597 17.8823 5.69485 18.1234C5.45373 18.3645 5.12671 18.5 4.78571 18.5C4.44472 18.5 4.1177 18.3645 3.87658 18.1234C3.63546 17.8823 3.5 17.5553 3.5 17.2143C3.5 16.8733 3.63546 16.5463 3.87658 16.3052C4.1177 16.064 4.44472 15.9286 4.78571 15.9286ZM20.2134 16.3571C20.6874 16.3571 21.0714 16.7377 21.0714 17.2143C21.0714 17.6879 20.69 18.0714 20.2134 18.0714H8.21514C8.10245 18.0718 7.99079 18.0498 7.8866 18.0069C7.7824 17.9639 7.68772 17.9008 7.60799 17.8212C7.52826 17.7415 7.46506 17.6469 7.42201 17.5428C7.37896 17.4386 7.35692 17.327 7.35714 17.2143C7.35714 16.7407 7.73857 16.3571 8.21514 16.3571H20.2134ZM4.78571 11.6429C5.12671 11.6429 5.45373 11.7783 5.69485 12.0194C5.93597 12.2606 6.07143 12.5876 6.07143 12.9286C6.07143 13.2696 5.93597 13.5966 5.69485 13.8377C5.45373 14.0788 5.12671 14.2143 4.78571 14.2143C4.44472 14.2143 4.1177 14.0788 3.87658 13.8377C3.63546 13.5966 3.5 13.2696 3.5 12.9286C3.5 12.5876 3.63546 12.2606 3.87658 12.0194C4.1177 11.7783 4.44472 11.6429 4.78571 11.6429ZM20.2134 12.0714C20.6874 12.0714 21.0714 12.452 21.0714 12.9286C21.0714 13.4021 20.69 13.7857 20.2134 13.7857H8.21514C8.10245 13.7861 7.99079 13.7641 7.8866 13.7212C7.7824 13.6782 7.68772 13.6151 7.60799 13.5355C7.52826 13.4558 7.46506 13.3612 7.42201 13.2571C7.37896 13.1529 7.35692 13.0413 7.35714 12.9286C7.35714 12.455 7.73857 12.0714 8.21514 12.0714H20.2134ZM4.78571 7.35715C5.12671 7.35715 5.45373 7.49261 5.69485 7.73372C5.93597 7.97484 6.07143 8.30187 6.07143 8.64286C6.07143 8.98385 5.93597 9.31088 5.69485 9.552C5.45373 9.79312 5.12671 9.92858 4.78571 9.92858C4.44472 9.92858 4.1177 9.79312 3.87658 9.552C3.63546 9.31088 3.5 8.98385 3.5 8.64286C3.5 8.30187 3.63546 7.97484 3.87658 7.73372C4.1177 7.49261 4.44472 7.35715 4.78571 7.35715ZM20.2134 7.78572C20.6874 7.78572 21.0714 8.16629 21.0714 8.64286C21.0714 9.11643 20.69 9.5 20.2134 9.5H8.21514C8.10245 9.50034 7.99079 9.47841 7.8866 9.43547C7.7824 9.39252 7.68772 9.32941 7.60799 9.24976C7.52826 9.17011 7.46506 9.07549 7.42201 8.97134C7.37896 8.86719 7.35692 8.75556 7.35714 8.64286C7.35714 8.16929 7.73857 7.78572 8.21514 7.78572H20.2134Z" fill="white"/>
</svg>
