<svg width="17" height="17" viewBox="0 0 17 17" fill="none" xmlns="http://www.w3.org/2000/svg">
<path d="M0.5 1.5H16.5V12.5H6.21094L2.5 16.2109V12.5H0.5V1.5ZM7.5 5.5H5.5V7.5H6.5V8.5C6.64062 8.5 6.77083 8.47396 6.89062 8.42188C7.01042 8.36979 7.11458 8.29948 7.20312 8.21094C7.29167 8.1224 7.36458 8.01562 7.42188 7.89062C7.47917 7.76562 7.50521 7.63542 7.5 7.5V5.5ZM11.5 5.5H9.5V7.5H10.5V8.5C10.6406 8.5 10.7708 8.47396 10.8906 8.42188C11.0104 8.36979 11.1146 8.29948 11.2031 8.21094C11.2917 8.1224 11.3646 8.01562 11.4219 7.89062C11.4792 7.76562 11.5052 7.63542 11.5 7.5V5.5Z" fill="white"/>
</svg>
