<svg width="16" height="16" viewBox="0 0 16 16" fill="none" xmlns="http://www.w3.org/2000/svg">
<path d="M8.00004 1.33334C6.6815 1.33334 5.39257 1.72434 4.29624 2.45688C3.19991 3.18942 2.34543 4.23061 1.84085 5.44879C1.33626 6.66696 1.20424 8.0074 1.46148 9.30061C1.71871 10.5938 2.35365 11.7817 3.286 12.7141C4.21835 13.6464 5.40624 14.2813 6.69944 14.5386C7.99265 14.7958 9.33309 14.6638 10.5513 14.1592C11.7694 13.6546 12.8106 12.8001 13.5432 11.7038C14.2757 10.6075 14.6667 9.31855 14.6667 8.00001C14.6667 7.12453 14.4943 6.25762 14.1592 5.44879C13.8242 4.63995 13.3331 3.90502 12.7141 3.28596C12.095 2.66691 11.3601 2.17584 10.5513 1.84081C9.74243 1.50578 8.87552 1.33334 8.00004 1.33334ZM6.66671 11V5.00001L10.6667 8.00001L6.66671 11Z" fill="white"/>
</svg>
