<svg width="20" height="21" viewBox="0 0 20 21" fill="none" xmlns="http://www.w3.org/2000/svg">
<path fill-rule="evenodd" clip-rule="evenodd" d="M0.833313 10.5C0.833313 5.4375 4.93748 1.33333 9.99998 1.33333C15.0625 1.33333 19.1666 5.4375 19.1666 10.5C19.1666 15.5625 15.0625 19.6667 9.99998 19.6667C4.93748 19.6667 0.833313 15.5625 0.833313 10.5ZM6.24831 6.44583C6.37458 6.37262 6.51786 6.33386 6.66381 6.33342C6.80977 6.33298 6.95328 6.37088 7.07998 6.44333L12.5 9.54V7.16667C12.5 6.94565 12.5878 6.73369 12.7441 6.57741C12.9003 6.42113 13.1123 6.33333 13.3333 6.33333C13.5543 6.33333 13.7663 6.42113 13.9226 6.57741C14.0788 6.73369 14.1666 6.94565 14.1666 7.16667V13.8333C14.1666 14.0543 14.0788 14.2663 13.9226 14.4226C13.7663 14.5789 13.5543 14.6667 13.3333 14.6667C13.1123 14.6667 12.9003 14.5789 12.7441 14.4226C12.5878 14.2663 12.5 14.0543 12.5 13.8333V11.46L7.07998 14.5567C6.95326 14.6291 6.80976 14.6669 6.66383 14.6664C6.5179 14.6659 6.37466 14.6271 6.24843 14.5539C6.12221 14.4806 6.01743 14.3755 5.94458 14.2491C5.87173 14.1226 5.83336 13.9793 5.83331 13.8333V7.16667C5.83329 7.02069 5.87162 6.87728 5.94445 6.75077C6.01728 6.62427 6.12207 6.51911 6.24831 6.44583Z" fill="white"/>
</svg>
