<svg width="25" height="25" viewBox="0 0 25 25" fill="none" xmlns="http://www.w3.org/2000/svg">
<path d="M6.45004 3.82291L20.5834 11.774C20.7121 11.8465 20.8193 11.9519 20.8938 12.0795C20.9684 12.2071 21.0077 12.3522 21.0077 12.5C21.0077 12.6478 20.9684 12.7929 20.8938 12.9205C20.8193 13.048 20.7121 13.1535 20.5834 13.226L6.45004 21.1771C6.32319 21.2484 6.17987 21.2852 6.03435 21.2839C5.88884 21.2827 5.74619 21.2433 5.62061 21.1698C5.49504 21.0962 5.39091 20.9911 5.31858 20.8648C5.24626 20.7385 5.20826 20.5955 5.20837 20.45V4.55C5.20844 4.40456 5.24657 4.26168 5.31897 4.13555C5.39137 4.00941 5.49552 3.90442 5.62106 3.83101C5.74661 3.7576 5.88918 3.71832 6.03461 3.71709C6.18004 3.71585 6.32326 3.75165 6.45004 3.82291Z" fill="white"/>
</svg>
