<svg width="16" height="16" viewBox="0 0 16 16" fill="none" xmlns="http://www.w3.org/2000/svg">
<path d="M12.2187 8C12.2187 6.89062 11.5406 5.94063 10.5781 5.54063L10.0656 6.77187C10.5469 6.97187 10.8843 7.44688 10.8843 8.00313C10.8843 8.55625 10.5469 9.03125 10.0656 9.23438L10.5781 10.4656C11.5406 10.0594 12.2187 9.10938 12.2187 8ZM11.6031 3.07812L11.0906 4.30937C12.5375 4.9125 13.5531 6.3375 13.5531 8C13.5531 9.66562 12.5375 11.0875 11.0906 11.6906L11.6031 12.9219C13.5312 12.1187 14.8843 10.2188 14.8843 8C14.8843 5.78125 13.5312 3.88125 11.6031 3.07812ZM1.5531 4.66563V11.3313H4.21873L8.88435 16V0L4.21873 4.66563H1.5531Z" fill="white"/>
</svg>
