<svg width="17" height="17" viewBox="0 0 17 17" fill="none" xmlns="http://www.w3.org/2000/svg">
<path fill-rule="evenodd" clip-rule="evenodd" d="M9.22238 6.9304V2.7784C9.19198 2.50427 9.04051 2.32774 8.76798 2.2488C8.49545 2.1688 8.22558 2.23814 7.95838 2.4568L1.48958 7.9272C1.40529 7.99684 1.33758 8.08438 1.29136 8.18346C1.24514 8.28254 1.22158 8.39068 1.22238 8.5C1.22238 8.724 1.31145 8.91547 1.48958 9.0744L8.00158 14.5816C8.26825 14.7661 8.52958 14.8208 8.78558 14.7456C9.04158 14.6704 9.18718 14.5069 9.22238 14.2552V10.0648L14.5136 14.5432C14.7781 14.7544 15.057 14.8219 15.3504 14.7456C15.6432 14.6693 15.7856 14.5059 15.7776 14.2552V2.844C15.7856 2.58107 15.6653 2.3912 15.4168 2.2744C15.1677 2.15707 14.8824 2.20294 14.5608 2.412L9.22238 6.9304Z" fill="white"/>
</svg>
