<svg width="14" height="14" viewBox="0 0 14 14" fill="none" xmlns="http://www.w3.org/2000/svg">
<path d="M7.00004 0.333344C5.6815 0.333344 4.39257 0.724337 3.29624 1.45688C2.19991 2.18942 1.34543 3.23061 0.840847 4.44879C0.336263 5.66696 0.20424 7.0074 0.461475 8.30061C0.71871 9.59382 1.35365 10.7817 2.286 11.7141C3.21835 12.6464 4.40624 13.2813 5.69944 13.5386C6.99265 13.7958 8.33309 13.6638 9.55127 13.1592C10.7694 12.6546 11.8106 11.8001 12.5432 10.7038C13.2757 9.60748 13.6667 8.31855 13.6667 7.00001C13.6667 6.12453 13.4943 5.25762 13.1592 4.44879C12.8242 3.63995 12.3331 2.90502 11.7141 2.28596C11.095 1.66691 10.3601 1.17584 9.55127 0.840813C8.74243 0.505782 7.87552 0.333344 7.00004 0.333344ZM5.66671 10V4.00001L9.66671 7.00001L5.66671 10Z" fill="white"/>
</svg>
